<?xml version="1.0" encoding="UTF-8"?>
<svg xmlns="http://www.w3.org/2000/svg" width="1024" height="1024" viewBox="0 0 1024 1024">
<circle cx="512" cy="300" r="150" fill="#29596a"/>
<path d="M 692.00,310.00 L 692.00,290.00 L 742.00,290.00 L 742.00,310.00 Z" fill="#29596a"/>
<path d="M 632.21,434.35 L 646.35,420.21 L 681.71,455.56 L 667.56,469.71 Z" fill="#29596a"/>
<path d="M 502.00,480.00 L 522.00,480.00 L 522.00,530.00 L 502.00,530.00 Z" fill="#29596a"/>
<path d="M 377.65,420.21 L 391.79,434.35 L 356.44,469.71 L 342.29,455.56 Z" fill="#29596a"/>
<path d="M 332.00,290.00 L 332.00,310.00 L 282.00,310.00 L 282.00,290.00 Z" fill="#29596a"/>
<path d="M 391.79,165.65 L 377.65,179.79 L 342.29,144.44 L 356.44,130.29 Z" fill="#29596a"/>
<path d="M 522.00,120.00 L 502.00,120.00 L 502.00,70.00 L 522.00,70.00 Z" fill="#29596a"/>
<path d="M 646.35,179.79 L 632.21,165.65 L 667.56,130.29 L 681.71,144.44 Z" fill="#29596a"/>
<path d="M 150,360 C 350,310 550,410 850,360 L 850,430 C 550,480 350,380 150,430 Z" fill="#2fa4b7"/>
<path d="M 150,400 C 350,350 550,450 850,400 L 850,470 C 550,520 350,420 150,470 Z" fill="#1c6672"/>
<text x="512" y="800" text-anchor="middle" font-family="sans-serif" font-weight="700" font-size="120" fill="#1f3446">BMW</text>
<text x="512" y="900" text-anchor="middle" font-family="sans-serif" font-weight="400" font-size="70" fill="#2fa4b7">ENERGIA</text>
</svg>